%TF.GenerationSoftware,KiCad,Pcbnew,8.0.8*%
%TF.CreationDate,2025-01-31T19:08:08+05:30*%
%TF.ProjectId,LED Chaser circuit,4c454420-4368-4617-9365-722063697263,rev?*%
%TF.SameCoordinates,Original*%
%TF.FileFunction,Copper,L2,Bot*%
%TF.FilePolarity,Positive*%
%FSLAX46Y46*%
G04 Gerber Fmt 4.6, Leading zero omitted, Abs format (unit mm)*
G04 Created by KiCad (PCBNEW 8.0.8) date 2025-01-31 19:08:08*
%MOMM*%
%LPD*%
G01*
G04 APERTURE LIST*
G04 Aperture macros list*
%AMRoundRect*
0 Rectangle with rounded corners*
0 $1 Rounding radius*
0 $2 $3 $4 $5 $6 $7 $8 $9 X,Y pos of 4 corners*
0 Add a 4 corners polygon primitive as box body*
4,1,4,$2,$3,$4,$5,$6,$7,$8,$9,$2,$3,0*
0 Add four circle primitives for the rounded corners*
1,1,$1+$1,$2,$3*
1,1,$1+$1,$4,$5*
1,1,$1+$1,$6,$7*
1,1,$1+$1,$8,$9*
0 Add four rect primitives between the rounded corners*
20,1,$1+$1,$2,$3,$4,$5,0*
20,1,$1+$1,$4,$5,$6,$7,0*
20,1,$1+$1,$6,$7,$8,$9,0*
20,1,$1+$1,$8,$9,$2,$3,0*%
G04 Aperture macros list end*
%TA.AperFunction,ComponentPad*%
%ADD10R,1.600000X1.600000*%
%TD*%
%TA.AperFunction,ComponentPad*%
%ADD11C,1.600000*%
%TD*%
%TA.AperFunction,ComponentPad*%
%ADD12O,1.600000X1.600000*%
%TD*%
%TA.AperFunction,ComponentPad*%
%ADD13RoundRect,0.250000X0.470000X-0.470000X0.470000X0.470000X-0.470000X0.470000X-0.470000X-0.470000X0*%
%TD*%
%TA.AperFunction,ComponentPad*%
%ADD14C,1.440000*%
%TD*%
%TA.AperFunction,ComponentPad*%
%ADD15C,1.400000*%
%TD*%
%TA.AperFunction,ComponentPad*%
%ADD16O,1.400000X1.400000*%
%TD*%
%TA.AperFunction,ComponentPad*%
%ADD17R,1.800000X1.800000*%
%TD*%
%TA.AperFunction,ComponentPad*%
%ADD18C,1.800000*%
%TD*%
%TA.AperFunction,ComponentPad*%
%ADD19C,1.200000*%
%TD*%
%TA.AperFunction,ComponentPad*%
%ADD20R,1.200000X1.200000*%
%TD*%
%TA.AperFunction,Conductor*%
%ADD21C,0.200000*%
%TD*%
G04 APERTURE END LIST*
D10*
%TO.P,U2,1,Q5*%
%TO.N,Net-(D5-A)*%
X156000000Y-101080000D03*
D11*
%TO.P,U2,2,Q1*%
%TO.N,Net-(D1-A)*%
X156000000Y-98540000D03*
%TO.P,U2,3,Q0*%
%TO.N,Net-(D10-A)*%
X156000000Y-96000000D03*
%TO.P,U2,4,Q2*%
%TO.N,Net-(D2-A)*%
X156000000Y-93460000D03*
%TO.P,U2,5,Q6*%
%TO.N,Net-(D6-A)*%
X156000000Y-90920000D03*
%TO.P,U2,6,Q7*%
%TO.N,Net-(D7-A)*%
X156000000Y-88380000D03*
%TO.P,U2,7,Q3*%
%TO.N,Net-(D3-A)*%
X156000000Y-85840000D03*
%TO.P,U2,8,VSS*%
%TO.N,Net-(U1-GND)*%
X156000000Y-83300000D03*
%TO.P,U2,9,Q8*%
%TO.N,Net-(D8-A)*%
X148380000Y-83300000D03*
%TO.P,U2,10,Q4*%
%TO.N,Net-(D4-A)*%
X148380000Y-85840000D03*
%TO.P,U2,11,Q9*%
%TO.N,Net-(D9-A)*%
X148380000Y-88380000D03*
%TO.P,U2,12,Cout*%
%TO.N,unconnected-(U2-Cout-Pad12)*%
X148380000Y-90920000D03*
%TO.P,U2,13,CKEN*%
%TO.N,Net-(U1-GND)*%
X148380000Y-93460000D03*
%TO.P,U2,14,CLK*%
%TO.N,Net-(U1-Q)*%
X148380000Y-96000000D03*
%TO.P,U2,15,Reset*%
%TO.N,Net-(U1-GND)*%
X148380000Y-98540000D03*
%TO.P,U2,16,VDD*%
%TO.N,Net-(U1-R)*%
X148380000Y-101080000D03*
%TD*%
D10*
%TO.P,U1,1,GND*%
%TO.N,Net-(U1-GND)*%
X143620000Y-93120000D03*
D12*
%TO.P,U1,2,TR*%
%TO.N,Net-(U1-THR)*%
X143620000Y-90580000D03*
%TO.P,U1,3,Q*%
%TO.N,Net-(U1-Q)*%
X143620000Y-88040000D03*
%TO.P,U1,4,R*%
%TO.N,Net-(U1-R)*%
X143620000Y-85500000D03*
%TO.P,U1,5,CV*%
%TO.N,unconnected-(U1-CV-Pad5)*%
X136000000Y-85500000D03*
%TO.P,U1,6,THR*%
%TO.N,Net-(U1-THR)*%
X136000000Y-88040000D03*
%TO.P,U1,7,DIS*%
%TO.N,Net-(U1-DIS)*%
X136000000Y-90580000D03*
%TO.P,U1,8,VCC*%
%TO.N,Net-(U1-R)*%
X136000000Y-93120000D03*
%TD*%
D13*
%TO.P,RV1,1,1*%
%TO.N,Net-(R2-Pad1)*%
X143420000Y-73000000D03*
D14*
%TO.P,RV1,2,2*%
%TO.N,Net-(U1-THR)*%
X145960000Y-73000000D03*
%TO.P,RV1,3,3*%
%TO.N,unconnected-(RV1-Pad3)*%
X148500000Y-73000000D03*
%TD*%
D15*
%TO.P,R3,1*%
%TO.N,Net-(U1-GND)*%
X163500000Y-94920000D03*
D16*
%TO.P,R3,2*%
%TO.N,Net-(D1-K)*%
X163500000Y-100000000D03*
%TD*%
D15*
%TO.P,R2,1*%
%TO.N,Net-(R2-Pad1)*%
X145420000Y-66500000D03*
D16*
%TO.P,R2,2*%
%TO.N,Net-(U1-DIS)*%
X150500000Y-66500000D03*
%TD*%
D15*
%TO.P,R1,1*%
%TO.N,Net-(U1-R)*%
X154500000Y-75500000D03*
D16*
%TO.P,R1,2*%
%TO.N,Net-(U1-DIS)*%
X154500000Y-70420000D03*
%TD*%
D17*
%TO.P,D10,1,K*%
%TO.N,Net-(D1-K)*%
X161500000Y-107500000D03*
D18*
%TO.P,D10,2,A*%
%TO.N,Net-(D10-A)*%
X158960000Y-107500000D03*
%TD*%
D17*
%TO.P,D9,1,K*%
%TO.N,Net-(D1-K)*%
X171500000Y-98540000D03*
D18*
%TO.P,D9,2,A*%
%TO.N,Net-(D9-A)*%
X171500000Y-96000000D03*
%TD*%
D17*
%TO.P,D8,1,K*%
%TO.N,Net-(D1-K)*%
X173000000Y-85500000D03*
D18*
%TO.P,D8,2,A*%
%TO.N,Net-(D8-A)*%
X173000000Y-88040000D03*
%TD*%
D17*
%TO.P,D7,1,K*%
%TO.N,Net-(D1-K)*%
X170960000Y-74500000D03*
D18*
%TO.P,D7,2,A*%
%TO.N,Net-(D7-A)*%
X170960000Y-77040000D03*
%TD*%
D17*
%TO.P,D6,1,K*%
%TO.N,Net-(D1-K)*%
X162960000Y-65000000D03*
D18*
%TO.P,D6,2,A*%
%TO.N,Net-(D6-A)*%
X162960000Y-67540000D03*
%TD*%
D17*
%TO.P,D5,1,K*%
%TO.N,Net-(D1-K)*%
X146460000Y-59000000D03*
D18*
%TO.P,D5,2,A*%
%TO.N,Net-(D5-A)*%
X146460000Y-61540000D03*
%TD*%
D17*
%TO.P,D4,1,K*%
%TO.N,Net-(D1-K)*%
X130960000Y-66500000D03*
D18*
%TO.P,D4,2,A*%
%TO.N,Net-(D4-A)*%
X133500000Y-66500000D03*
%TD*%
D17*
%TO.P,D3,1,K*%
%TO.N,Net-(D1-K)*%
X123460000Y-81500000D03*
D18*
%TO.P,D3,2,A*%
%TO.N,Net-(D3-A)*%
X126000000Y-81500000D03*
%TD*%
D17*
%TO.P,D2,1,K*%
%TO.N,Net-(D1-K)*%
X123460000Y-96000000D03*
D18*
%TO.P,D2,2,A*%
%TO.N,Net-(D2-A)*%
X126000000Y-96000000D03*
%TD*%
D17*
%TO.P,D1,1,K*%
%TO.N,Net-(D1-K)*%
X136460000Y-109000000D03*
D18*
%TO.P,D1,2,A*%
%TO.N,Net-(D1-A)*%
X139000000Y-109000000D03*
%TD*%
D19*
%TO.P,C1,2*%
%TO.N,Net-(U1-GND)*%
X132500000Y-78500000D03*
D20*
%TO.P,C1,1*%
%TO.N,Net-(U1-THR)*%
X134500000Y-78500000D03*
%TD*%
D21*
%TO.N,Net-(D3-A)*%
X150500000Y-103000000D02*
X150500000Y-91340000D01*
X150500000Y-91340000D02*
X156000000Y-85840000D01*
X127200000Y-94700000D02*
X137000000Y-104500000D01*
X149000000Y-104500000D02*
X150500000Y-103000000D01*
X127200000Y-82700000D02*
X127200000Y-94700000D01*
X137000000Y-104500000D02*
X149000000Y-104500000D01*
X126000000Y-81500000D02*
X127200000Y-82700000D01*
%TO.N,Net-(U1-DIS)*%
X147000000Y-77920000D02*
X154500000Y-70420000D01*
X147000000Y-83894314D02*
X147000000Y-77920000D01*
X147845686Y-84740000D02*
X147000000Y-83894314D01*
X149480000Y-85384365D02*
X148835635Y-84740000D01*
X149480000Y-86295635D02*
X149480000Y-85384365D01*
X148835635Y-86940000D02*
X149480000Y-86295635D01*
X148835635Y-84740000D02*
X147845686Y-84740000D01*
X139640000Y-86940000D02*
X148835635Y-86940000D01*
X136000000Y-90580000D02*
X139640000Y-86940000D01*
%TO.N,Net-(D4-A)*%
X133500000Y-70960000D02*
X133500000Y-66500000D01*
X148380000Y-85840000D02*
X133500000Y-70960000D01*
%TO.N,Net-(D6-A)*%
X162960000Y-83960000D02*
X156000000Y-90920000D01*
X162960000Y-67540000D02*
X162960000Y-83960000D01*
%TD*%
M02*
