%TF.GenerationSoftware,KiCad,Pcbnew,8.0.8*%
%TF.CreationDate,2025-01-31T19:08:08+05:30*%
%TF.ProjectId,LED Chaser circuit,4c454420-4368-4617-9365-722063697263,rev?*%
%TF.SameCoordinates,Original*%
%TF.FileFunction,Soldermask,Top*%
%TF.FilePolarity,Negative*%
%FSLAX46Y46*%
G04 Gerber Fmt 4.6, Leading zero omitted, Abs format (unit mm)*
G04 Created by KiCad (PCBNEW 8.0.8) date 2025-01-31 19:08:08*
%MOMM*%
%LPD*%
G01*
G04 APERTURE LIST*
G04 Aperture macros list*
%AMRoundRect*
0 Rectangle with rounded corners*
0 $1 Rounding radius*
0 $2 $3 $4 $5 $6 $7 $8 $9 X,Y pos of 4 corners*
0 Add a 4 corners polygon primitive as box body*
4,1,4,$2,$3,$4,$5,$6,$7,$8,$9,$2,$3,0*
0 Add four circle primitives for the rounded corners*
1,1,$1+$1,$2,$3*
1,1,$1+$1,$4,$5*
1,1,$1+$1,$6,$7*
1,1,$1+$1,$8,$9*
0 Add four rect primitives between the rounded corners*
20,1,$1+$1,$2,$3,$4,$5,0*
20,1,$1+$1,$4,$5,$6,$7,0*
20,1,$1+$1,$6,$7,$8,$9,0*
20,1,$1+$1,$8,$9,$2,$3,0*%
G04 Aperture macros list end*
%ADD10R,1.600000X1.600000*%
%ADD11C,1.600000*%
%ADD12O,1.600000X1.600000*%
%ADD13RoundRect,0.250000X0.470000X-0.470000X0.470000X0.470000X-0.470000X0.470000X-0.470000X-0.470000X0*%
%ADD14C,1.440000*%
%ADD15C,1.400000*%
%ADD16O,1.400000X1.400000*%
%ADD17R,1.800000X1.800000*%
%ADD18C,1.800000*%
%ADD19C,1.200000*%
%ADD20R,1.200000X1.200000*%
G04 APERTURE END LIST*
D10*
%TO.C,U2*%
X156000000Y-101080000D03*
D11*
X156000000Y-98540000D03*
X156000000Y-96000000D03*
X156000000Y-93460000D03*
X156000000Y-90920000D03*
X156000000Y-88380000D03*
X156000000Y-85840000D03*
X156000000Y-83300000D03*
X148380000Y-83300000D03*
X148380000Y-85840000D03*
X148380000Y-88380000D03*
X148380000Y-90920000D03*
X148380000Y-93460000D03*
X148380000Y-96000000D03*
X148380000Y-98540000D03*
X148380000Y-101080000D03*
%TD*%
D10*
%TO.C,U1*%
X143620000Y-93120000D03*
D12*
X143620000Y-90580000D03*
X143620000Y-88040000D03*
X143620000Y-85500000D03*
X136000000Y-85500000D03*
X136000000Y-88040000D03*
X136000000Y-90580000D03*
X136000000Y-93120000D03*
%TD*%
D13*
%TO.C,RV1*%
X143420000Y-73000000D03*
D14*
X145960000Y-73000000D03*
X148500000Y-73000000D03*
%TD*%
D15*
%TO.C,R3*%
X163500000Y-94920000D03*
D16*
X163500000Y-100000000D03*
%TD*%
D15*
%TO.C,R2*%
X145420000Y-66500000D03*
D16*
X150500000Y-66500000D03*
%TD*%
D15*
%TO.C,R1*%
X154500000Y-75500000D03*
D16*
X154500000Y-70420000D03*
%TD*%
D17*
%TO.C,D10*%
X161500000Y-107500000D03*
D18*
X158960000Y-107500000D03*
%TD*%
D17*
%TO.C,D9*%
X171500000Y-98540000D03*
D18*
X171500000Y-96000000D03*
%TD*%
D17*
%TO.C,D8*%
X173000000Y-85500000D03*
D18*
X173000000Y-88040000D03*
%TD*%
D17*
%TO.C,D7*%
X170960000Y-74500000D03*
D18*
X170960000Y-77040000D03*
%TD*%
D17*
%TO.C,D6*%
X162960000Y-65000000D03*
D18*
X162960000Y-67540000D03*
%TD*%
D17*
%TO.C,D5*%
X146460000Y-59000000D03*
D18*
X146460000Y-61540000D03*
%TD*%
D17*
%TO.C,D4*%
X130960000Y-66500000D03*
D18*
X133500000Y-66500000D03*
%TD*%
D17*
%TO.C,D3*%
X123460000Y-81500000D03*
D18*
X126000000Y-81500000D03*
%TD*%
D17*
%TO.C,D2*%
X123460000Y-96000000D03*
D18*
X126000000Y-96000000D03*
%TD*%
D17*
%TO.C,D1*%
X136460000Y-109000000D03*
D18*
X139000000Y-109000000D03*
%TD*%
D19*
%TO.C,C1*%
X132500000Y-78500000D03*
D20*
X134500000Y-78500000D03*
%TD*%
M02*
